<svg xmlns="http://www.w3.org/2000/svg" xmlns:xlink="http://www.w3.org/1999/xlink" xmlns:svgjs="http://svgjs.com/svgjs" width="512" height="512" x="0" y="0" viewBox="0 0 64 64" style="enable-background:new 0 0 512 512" xml:space="preserve" class=""><g><g xmlns="http://www.w3.org/2000/svg" id="Layer_20" data-name="Layer 20"><path d="m3 38.92h58v3.35h-58z" fill="#ffffff" data-original="#606060" class=""></path><path d="m61 43.26h-58a1 1 0 0 1 -1-1v-3.34a1 1 0 0 1 1-1h58a1 1 0 0 1 1 1v3.34a1 1 0 0 1 -1 1zm-57-2h56v-1.34h-56z" fill="#0061a0" data-original="#000000" class=""></path><circle cx="40.92" cy="47.84" fill="#ffffff" r="4.46" data-original="#333333" class=""></circle><circle cx="53.19" cy="47.84" fill="#ffffff" r="4.46" data-original="#333333" class=""></circle><path d="m40.92 53.3a5.46 5.46 0 1 1 5.46-5.46 5.47 5.47 0 0 1 -5.46 5.46zm0-8.92a3.46 3.46 0 1 0 3.46 3.46 3.46 3.46 0 0 0 -3.46-3.46z" fill="#0061a0" data-original="#000000" class=""></path><path d="m40.92 50a2.12 2.12 0 1 1 2.08-2.16 2.12 2.12 0 0 1 -2.08 2.16zm0-2.23a.11.11 0 0 0 -.11.12c0 .13.23.12.23 0a.12.12 0 0 0 -.12-.17z" fill="#0061a0" data-original="#000000" class=""></path><path d="m53.19 53.3a5.46 5.46 0 1 1 5.46-5.46 5.47 5.47 0 0 1 -5.46 5.46zm0-8.92a3.46 3.46 0 1 0 3.46 3.46 3.46 3.46 0 0 0 -3.46-3.46z" fill="#0061a0" data-original="#000000" class=""></path><path d="m53.19 50a2.12 2.12 0 1 1 2.12-2.11 2.12 2.12 0 0 1 -2.12 2.11zm0-2.23a.11.11 0 0 0 -.11.12c0 .12.23.12.23 0a.12.12 0 0 0 -.12-.17z" fill="#0061a0" data-original="#000000" class=""></path><path d="m5.23 53.3a1 1 0 0 1 -1-1v-10a1 1 0 0 1 2 0v10a1 1 0 0 1 -1 1z" fill="#0061a0" data-original="#000000" class=""></path><path d="m33.12 50h-23.43a1 1 0 0 1 -1-1v-6.74a1 1 0 0 1 2 0v5.74h21.43v-5.74a1 1 0 0 1 2 0v6.74a1 1 0 0 1 -1 1z" fill="#0061a0" data-original="#000000" class=""></path><path d="m33.12 46.61h-23.43a1 1 0 1 1 0-2h23.43a1 1 0 0 1 0 2z" fill="#0061a0" data-original="#000000" class=""></path><path d="m6.35 11.7h52.42v26.1h-52.42z" fill="#ffffff" data-original="#c1272d" class=""></path><path d="m58.77 38.8h-52.42a1 1 0 0 1 -1-1v-26.1a1 1 0 0 1 1-1h52.42a1 1 0 0 1 1 1v26.1a1 1 0 0 1 -1 1zm-51.42-2h50.42v-24.1h-50.42z" fill="#0061a0" data-original="#000000" class=""></path><path d="m55.27 38a1 1 0 0 1 -1-1v-25a1 1 0 0 1 2 0v25a1 1 0 0 1 -1 1z" fill="#0061a0" data-original="#000000" class=""></path><path d="m47.69 38a1 1 0 0 1 -1-1v-25a1 1 0 0 1 2 0v25a1 1 0 0 1 -1 1z" fill="#0061a0" data-original="#000000" class=""></path><path d="m40.11 38a1 1 0 0 1 -1-1v-25a1 1 0 0 1 2 0v25a1 1 0 0 1 -1 1z" fill="#0061a0" data-original="#000000" class=""></path><path d="m32.54 38a1 1 0 0 1 -1-1v-25a1 1 0 0 1 2 0v25a1 1 0 0 1 -1 1z" fill="#0061a0" data-original="#000000" class=""></path><path d="m25 38a1 1 0 0 1 -1-1v-25a1 1 0 0 1 2 0v25a1 1 0 0 1 -1 1z" fill="#0061a0" data-original="#000000" class=""></path><path d="m17.38 38a1 1 0 0 1 -1-1v-25a1 1 0 0 1 2 0v25a1 1 0 0 1 -1 1z" fill="#0061a0" data-original="#000000" class=""></path><path d="m9.8 38a1 1 0 0 1 -1-1v-25a1 1 0 0 1 2 0v25a1 1 0 0 1 -1 1z" fill="#0061a0" data-original="#000000" class=""></path></g></g></svg>