<svg xmlns="http://www.w3.org/2000/svg" height="512" viewBox="0 0 64 64" width="512"><g id="_x31_9-Mail"><g><path d="m52.6289063 23.2226563-5.7705078-4.6711426v-6.5515137c0-.5522461-.4472656-1-1-1h-27.7167969c-.5527344 0-1 .4477539-1 1v6.5524292l-5.7705078 4.6702271c-.234375.1899414-.3710938.4755859-.3710938.7773437v28c0 .5522461.4472656 1 1 1h40c.5527344 0 1-.4477539 1-1v-28c0-.3017578-.1367187-.5874023-.3710937-.7773437zm-39.6289063 2.939392 14.4683228 12.2978516-14.4683228 11.4711304zm19 11.2573853 17.1291504 13.5805664h-34.2583008zm4.5319824 1.0406494 14.4680176-12.2979736v23.7689209zm13.9020996-14.4411011-3.5756836 3.0393677v-5.93396zm-5.5756836-11.0189819v15.7583618l-9.9237671 8.4353027-2.3135376-1.8342896c-.3632813-.2880859-.8789063-.2880859-1.2421875 0l-2.3132935 1.8341064-9.9240112-8.4353027v-15.7581786zm-27.7167968 14.0582275-3.5756226-3.0392456 3.5756226-2.8938599z"></path><path d="m32.0693359 30.8769531c.6552734 0 1.3203125-.0869141 1.9814453-.2695313.5185547-.1435547 1.0205078-.3422852 1.4921875-.5908203.4892578-.2573242.6767578-.8623047.4189453-1.3505859-.2568359-.4892578-.8623047-.675293-1.3505859-.4189453-.3457031.1816406-.7138672.3276367-1.09375.4326172-2.8867188.8012695-5.8964844-.9008789-6.6972656-3.7915039-.3876953-1.3994141-.2060547-2.8662109.5107422-4.1298828s1.8828125-2.1728516 3.2841797-2.5600586c2.8856201-.7988281 5.8778687.8925171 6.6886597 3.765564.180542.8824463.0631104 2.0723877-.8097534 2.803772-.1474609.1235352-.4785156.1542969-.6542969-.0922852-.7556419-1.0599976-.7871094-2.6928711-.8671875-2.9804688-.3544922-1.5351563-1.9072266-2.1669922-3.2558594-1.9960938-1.3876953.1748047-2.7529297 1.2954102-3.3183594 2.7250977-.4804688 1.2133789-.2441406 2.6040039.6025391 3.5439453.5761719.640625 1.3623047.9819336 2.2021484.9819336.2900391 0 .5869141-.0405273.8828125-.1235352.7509766-.2104492 1.4257813-.6801758 1.9306641-1.3291016.0039063.0073242.0068359.0151367.0107422.0224609.3339844.7172852.9091797 1.1992188 1.6191406 1.3569336.7236328.1606445 1.5039063-.0488281 2.1328125-.5766602 1.3076172-1.0961914 1.8730469-2.9301758 1.4746094-4.7861328-.0021362-.0098267-.0090942-.0168457-.0114746-.0265503-.0025024-.0103149.0006714-.0203247-.0021973-.0305786-1.09375-3.9536133-5.2021484-6.2768555-9.1582031-5.1860352-1.9150391.5292969-3.5107422 1.7729492-4.4902344 3.5014648-.9804688 1.7285156-1.2294922 3.7348633-.6992188 5.6499023.9121094 3.2915042 3.9140625 5.4550784 7.1767578 5.4550784zm.5996094-6.9741211c-.2519531.4985352-.671875.8710938-1.1220703.9975586-.5380859.1508789-.8740234-.0639648-1.0605469-.2714844-.2802734-.3110352-.4589844-.8857422-.2285156-1.4682617.2949219-.7451172 1.0458984-1.394043 1.7089844-1.4775391.0546875-.0068359.1152344-.0107422.1787109-.0107422.3330078 0 .75.1054688.8632813.421875.0234375.6586915-.1044922 1.3437501-.3398438 1.8085938z"></path></g></g></svg>