<svg xmlns="http://www.w3.org/2000/svg" id="Layer_1_1_" height="512" viewBox="0 0 496 496" width="512"><path d="m480 288h-11.36l.989-4.448c1.574-7.082 2.372-14.353 2.372-21.607v-26.785c0-32.985 5.873-65.369 17.454-96.254 4.344-11.584 6.546-23.729 6.546-36.099-.001-56.688-46.121-102.807-102.809-102.807h-8.025c-35.933 0-65.167 29.233-65.167 65.167v14.833h16v55.278c0 18.043 14.679 32.722 32.721 32.722 2.489 0 4.925-.288 7.279-.818v27.402l-5.013 2.005c-10.439 4.175-19.058 11.198-25.132 19.972l-14.188 5.912 2.426-6.771-30.289-30.288-19.166 9.583c-5.159-2.715-10.547-4.949-16.1-6.677l-6.772-20.32h-43.532l-6.773 20.319c-5.553 1.728-10.942 3.962-16.1 6.677l-19.166-9.583-30.782 30.781 9.583 19.167c-2.145 4.077-3.985 8.305-5.518 12.639h-1.044l-28.579-45.726c-2.175-3.481-4.835-6.528-7.855-9.092v-25.2c17.71-.386 32-14.902 32-32.703v-37.98c0-3.201-.476-6.325-1.373-9.298h9.373c13.233 0 24-10.767 24-24 0-35.29-28.71-64-64-64h-43.226c-20.473-.001-38.247 14.57-42.262 34.645l-1.506 7.531c-15.133 6.983-25.006 22.156-25.006 39.121v1.776c0 38.425 21.815 73.19 56 90.03v26.192c-5.013 6.547-8 14.723-8 23.587v3.104 101.416l-25.29 168.597h129.29v-147.43l23.954 26.137 19.407-9.703c5.158 2.715 10.547 4.949 16.1 6.677l6.773 20.319h43.532l6.773-20.319c5.553-1.728 10.941-3.962 16.1-6.677l19.166 9.583 30.782-30.781-9.583-19.167c2.758-5.24 5.021-10.719 6.759-16.366l12.237-4.836v7.585c-5.309 21.565-8 43.751-8 65.962v47.016 8 64h96v-64h16v-48h32c8.822 0 16-7.178 16-16v-64c0-8.822-7.178-16-16-16zm-136-224h-7.986c.623-26.573 22.433-48 49.153-48h8.025c47.866 0 86.808 38.941 86.808 86.808 0 10.444-1.86 20.7-5.527 30.481-9.242 24.647-15.045 50.197-17.343 76.241-4.013-6.46-8.792-12.507-14.304-18.018l-10.826-10.826v-46.057c9.313-3.302 16-12.199 16-22.629s-6.688-19.327-16-22.629v-1.371c0-13.233-10.767-24-24-24zm48 94.277c2.375-2.416 4.413-5.215 5.988-8.365l1.167-2.334-14.311-7.156-1.167 2.334c-2.851 5.702-8.582 9.244-14.957 9.244-9.22 0-16.721-7.501-16.721-16.722v-55.278h56c4.411 0 8 3.589 8 8v16h8c4.411 0 8 3.589 8 8s-3.589 8-8 8h-8v58.584l-24 9.6v-29.907zm-15.07 53.167 45.144-18.058 9.439 9.439c15.791 15.792 24.487 36.787 24.487 59.119 0 6.09-.67 12.192-1.991 18.137l-5.315 23.919h-19.802l11.817-41.359-16.709-25.063v-21.578h-16v26.422l15.292 22.938-6.469 22.64h-24.823c-8.822 0-16 7.178-16 16h-16v-25.298l-5.965-17.896c-1.351-4.051-2.035-8.27-2.035-12.541 0-16.31 9.786-30.763 24.93-36.821zm47.07 111.043c0-.841.12-1.676.335-2.487h20.804l-1.858 8.36c-1 4.498-4.916 7.64-9.524 7.64-5.38 0-9.756-4.376-9.756-9.756v-3.757zm-86.514-61.477-57.486 22.104v-21.78l57.021-23.759c-.67 3.474-1.021 7.049-1.021 10.692 0 4.306.504 8.572 1.486 12.743zm-77.486 2.99h4v23.793c-1.33.126-2.665.207-4 .207-6.617 0-12-5.383-12-12s5.383-12 12-12zm10.4-16h-10.4c-7.234 0-13.836 2.757-18.81 7.276-4.363-4.483-10.455-7.276-17.19-7.276h-9.373c-4.516 0-8.839 1.244-12.586 3.561-.144-.117-.298-.222-.446-.334 8.969-11.905 23.205-19.227 38.405-19.227 13.081 0 25.325 5.259 34.262 14.391zm-62.4 19.314.97-.97c1.511-1.512 3.521-2.344 5.657-2.344h9.373c4.411 0 8 3.589 8 8v8c0 4.411-3.589 8-8 8h-16zm-8 36.686h8 16c6.735 0 12.827-2.793 17.19-7.276 4.974 4.519 11.576 7.276 18.81 7.276 8.319 0 16.637-1.822 24.221-5.244-7.306 17.355-24.407 29.244-44.221 29.244-17.28 0-33.101-9.472-41.557-24zm-35.119-84.646 14.473-14.473 16.505 8.252 3.743-2.194c6.312-3.701 13.085-6.51 20.134-8.349l4.198-1.096 5.832-17.494h20.468l5.831 17.495 4.198 1.096c7.049 1.839 13.823 4.647 20.134 8.349l3.743 2.194 16.505-8.252 14.966 14.966-3.924 10.949-21.817 9.09c-12.097-15.066-30.286-23.887-49.87-23.887-22.852 0-44.073 12.409-55.425 32h-17.905c1.257-2.875 2.678-5.681 4.269-8.396l2.195-3.743zm-36.881-84.076c0 9.221-7.501 16.722-16.721 16.722-6.375 0-12.105-3.542-14.957-9.244l-1.167-2.334-14.311 7.156 1.167 2.334c3.139 6.277 8.061 11.216 13.988 14.336v20.835c-2.945-.703-5.997-1.084-9.117-1.084-5.27 0-10.296 1.059-14.883 2.967v-66.966h-8c-4.411 0-8-3.589-8-8s3.589-8 8-8h8v-21.721c.001-5.668 4.612-10.279 10.28-10.279 2.105 0 4.131.634 5.86 1.834l16.392 11.375.512.257c3.315 1.657 7.027 2.534 10.734 2.534h4.223c1.598 0 3.159-.16 4.671-.46 2.138 2.766 3.329 6.165 3.329 9.758zm-112-52.204v-1.776c0-11.683 7.447-22.014 18.53-25.708l4.404-1.469 3.268-16.336c2.524-12.623 13.7-21.785 26.572-21.785h43.226c26.467 0 48 21.532 48 48 0 4.411-3.589 8-8 8h-9.376c.888-2.504 1.376-5.195 1.376-8 0-13.233-10.766-24-24-24h-8v16h8c4.411 0 8 3.589 8 8s-3.589 8-8 8h-4.223c-1.078 0-2.156-.222-3.146-.646l-15.369-10.665c-4.42-3.067-9.601-4.689-14.983-4.689-14.49 0-26.279 11.789-26.279 26.279v7.092c-9.312 3.302-16 12.199-16 22.629s6.688 19.327 16 22.629v20.227c-24.641-15.215-40-42.214-40-71.782zm70.883 116.926c7.941 0 15.195 4.021 19.404 10.755l27.555 44.088-11.5 11.5 11.313 11.314 13.659-13.657h44.686v24h-53.965c-9.692 0-19.046-3.515-26.34-9.896l-39.881-34.896c-4.966-4.346-7.814-10.622-7.814-17.222v-3.104c0-12.616 10.266-22.882 22.883-22.882zm-22.883 57.63 37.159 32.514c9.7 8.487 22.003 13.343 34.841 13.809v16.047h-72zm25.759 222.37 22.241-111.208v-16.792h-16v15.208l-22.559 112.792h-32.151l21.6-144h73.11v144zm228.677-183.665-1.025 3.928c-1.84 7.05-4.649 13.823-8.349 20.134l-2.195 3.743 8.253 16.506-14.473 14.473-16.505-8.252-3.743 2.194c-6.312 3.701-13.085 6.51-20.134 8.349l-4.198 1.096-5.833 17.494h-20.468l-5.832-17.495-4.198-1.096c-7.049-1.839-13.823-4.647-20.134-8.349l-3.743-2.194-16.265 8.132-27.594-30.11v-20.888h28.671c9.676 23.822 33.258 40 59.329 40 31.316 0 57.552-22.278 62.969-52.577l39.361-15.135 1.67 5.009v4.935zm33.564 135.665h16v48h-16zm64 48h-32v-48h32zm16-64h-80v-39.016c0-19.159 2.133-38.297 6.331-56.984h17.669v48c0 8.822 7.178 16 16 16h40zm48-48h-88v-64h20.251l-3.261 11.412c-.658 2.302-.991 4.683-.991 7.075v3.757c.001 14.202 11.555 25.756 25.757 25.756 12.165 0 22.504-8.294 25.143-20.169l6.185-27.831h14.916z"></path></svg>