<svg xmlns="http://www.w3.org/2000/svg" id="Capa_1" height="512" viewBox="0 0 511.98 511.98" width="512"><g><path d="m508.257 184.134c-3.724-6.091-9.881-10.353-16.894-11.692-12.062-2.306-24.024 4.34-28.441 15.798l-3.926 10.181c-.999-1.333-2.13-2.577-3.39-3.702-5.326-4.754-12.457-7.05-19.552-6.308-8.444.887-15.6 5.857-19.519 12.885-4.84-2.742-10.564-3.916-16.335-3.038-12.139 1.851-21.2 12.104-21.544 24.379l-.014.506c-4.843-2.172-10.417-2.84-16.032-1.57-11.978 2.707-20.29 13.575-19.763 25.844l2.483 57.863-35.373 17.629c-8.484 4.228-15.381 10.855-19.944 19.166l-14.115 25.706c-6.06 11.035-7.361 24.25-3.568 36.255 3.74 11.839 4.344 24.513 1.747 36.653l-12.234 57.19c-.867 4.05 1.714 8.037 5.765 8.903.529.113 1.056.167 1.576.167 3.461 0 6.573-2.411 7.327-5.933l12.234-57.189c3.14-14.676 2.41-29.999-2.111-44.31-2.565-8.119-1.686-17.055 2.413-24.517l14.116-25.707c3.085-5.619 7.749-10.101 13.487-12.96l40.927-20.397c9.798-4.884 18.692-11.285 26.433-19.026l36.337-36.337c6.364-6.364 16.721-6.364 23.085 0 3.083 3.083 4.781 7.182 4.781 11.542s-1.698 8.459-4.781 11.542l-43.779 43.779c-7.875 7.875-14.818 16.684-20.635 26.18-2.164 3.532-1.054 8.149 2.478 10.313 3.534 2.165 8.15 1.054 10.313-2.478 5.201-8.491 11.409-16.367 18.45-23.409l43.779-43.779c5.917-5.916 9.175-13.782 9.175-22.149 0-7.966-2.959-15.474-8.349-21.282l22.057-57.199c1.807-4.686 6.697-7.404 11.632-6.461 2.911.556 5.364 2.254 6.91 4.782 1.545 2.527 1.938 5.485 1.106 8.329l-35.2 120.311c-1.574 5.378-4.635 10.17-8.854 13.857l-92.042 80.448c-1.37 1.197-2.258 2.851-2.499 4.654l-10.534 78.9c-.548 4.106 2.336 7.878 6.441 8.427.337.045.671.067 1.002.067 3.701 0 6.921-2.74 7.425-6.508l10.16-76.103 89.917-78.59c6.375-5.572 11.002-12.812 13.38-20.94l35.2-120.31c2.002-6.849 1.016-14.271-2.708-20.362zm-148.258 113.119-2.166-50.478c-.215-5.018 3.184-9.463 8.083-10.57 5.236-1.18 10.558 1.92 12.165 6.962l-1.108 39.566-3.573 3.573c-4.103 4.103-8.588 7.763-13.401 10.947zm32.413-29.959 1.239-44.236c.141-5.021 3.846-9.214 8.812-9.971 4.193-.636 8.323 1.36 10.465 4.924l-2.332 31.143c-.288.268-.577.535-.858.815zm33.811-25.967 2.13-28.449c.375-5.008 4.272-9.024 9.268-9.549 2.952-.311 5.786.606 7.997 2.58 2.21 1.973 3.441 4.691 3.467 7.654l.09 10.33-7.168 18.59c-5.089-1.729-10.535-2.113-15.784-1.156z"></path><path d="m243.663 467.61c-.867-4.05-4.85-6.633-8.903-5.765-4.051.866-6.632 4.853-5.765 8.903l6.476 30.271c.753 3.522 3.865 5.933 7.327 5.933.52 0 1.047-.054 1.576-.167 4.051-.866 6.632-4.853 5.765-8.903z"></path><path d="m266.983 112.591c3.931 1.62 8.099 2.479 12.281 2.581l-5.441 13.203c-2.232 5.416-2.221 11.377.031 16.785 2.251 5.405 6.473 9.611 11.886 11.842l25.097 10.343c3.831 1.579 8.214-.246 9.792-4.076 1.579-3.83-.247-8.214-4.076-9.792l-25.097-10.343c-1.71-.705-3.043-2.033-3.755-3.741-.711-1.708-.715-3.591-.01-5.301l10.739-26.057c1.177-2.856.483-6.141-1.749-8.276-2.231-2.135-5.543-2.684-8.345-1.384-4.999 2.321-10.551 2.445-15.638.35-4.812-1.983-8.564-5.722-10.564-10.527s-2.01-10.102-.027-14.915c4.094-9.935 15.508-14.685 25.442-10.592 5.086 2.096 8.94 6.097 10.852 11.267 1.071 2.896 3.809 4.84 6.896 4.897 3.083.052 5.895-1.785 7.072-4.641l10.739-26.057c.705-1.711 2.034-3.044 3.743-3.755 1.708-.71 3.59-.713 5.3-.009l12.656 5.216c-2.344 2.746-4.254 5.863-5.653 9.257-3.624 8.793-3.438 18.801.512 27.457 4.006 8.781 11.272 15.314 20.459 18.398 15.971 5.36 33.828-1.884 41.54-16.85 2.171-4.212 3.44-8.696 3.782-13.271l12.646 5.211c1.71.705 3.044 2.034 3.755 3.742s.714 3.59.01 5.301l-35.417 85.936c-.705 1.71-2.034 3.044-3.742 3.755-1.708.712-3.591.714-5.301.01l-30.169-12.434c-3.829-1.577-8.213.247-9.792 4.076-1.579 3.83.247 8.214 4.076 9.792l30.169 12.434c2.695 1.111 5.525 1.666 8.354 1.666 2.855 0 5.711-.565 8.427-1.696 5.407-2.251 9.614-6.473 11.845-11.888l35.417-85.936c2.231-5.415 2.221-11.375-.03-16.781s-6.473-9.613-11.888-11.845l-20.476-8.439c-3.292-1.357-7.045-.798-9.795 1.455-2.759 2.259-4.047 5.84-3.364 9.345.844 4.329.208 8.719-1.841 12.695-4.35 8.44-14.422 12.525-23.435 9.5-5.207-1.748-9.321-5.442-11.585-10.403-2.265-4.964-2.368-10.474-.291-15.515 1.458-3.536 3.889-6.534 7.033-8.669 2.963-2.013 4.576-5.471 4.208-9.025-.365-3.533-2.635-6.569-5.923-7.924l-20.475-8.438c-5.413-2.231-11.372-2.222-16.778.029-5.408 2.25-9.616 6.472-11.848 11.888l-5.441 13.204c-3.04-2.874-6.603-5.203-10.533-6.822-8.516-3.509-17.89-3.493-26.395.047-8.504 3.541-15.121 10.181-18.631 18.697-3.51 8.517-3.494 17.891.047 26.396s10.182 15.117 18.699 18.627z"></path><path d="m278.244 291.265 3.11-13.938c3.485 2.313 7.393 4 11.542 4.925 8.991 2.007 18.224.391 26-4.548s13.163-12.61 15.169-21.601.391-18.225-4.548-26-12.61-13.163-21.601-15.168c-4.151-.927-8.403-1.062-12.542-.448l3.11-13.938c2.633-11.799-4.825-23.541-16.625-26.174l-34.412-7.678c4.314-5.134 6.236-12.172 4.572-19.184l-5.115-21.549c-.822-3.462-3.467-6.183-6.903-7.099-3.446-.917-7.104.127-9.549 2.73-3.021 3.214-6.955 5.262-11.379 5.922-9.396 1.401-18.592-4.389-21.402-13.467-1.624-5.247-1.029-10.745 1.675-15.481 2.705-4.738 7.117-8.041 12.421-9.3 3.721-.884 7.575-.661 11.146.643 3.364 1.228 7.113.516 9.783-1.858 2.654-2.36 3.792-5.977 2.971-9.437l-5.114-21.547c-2.792-11.762-14.635-19.06-26.397-16.27l-13.895 3.298c.557-4.146.365-8.398-.617-12.534-2.127-8.963-7.618-16.561-15.459-21.394-7.842-4.834-17.097-6.323-26.06-4.196s-16.561 7.618-21.394 15.459c-4.833 7.842-6.324 17.097-4.196 26.06.981 4.136 2.72 8.021 5.081 11.475l-13.895 3.298c-5.699 1.353-10.531 4.844-13.604 9.832-3.071 4.986-4.019 10.869-2.667 16.565l7.525 31.703c.957 4.03 5 6.522 9.029 5.565 4.03-.957 6.522-4.999 5.565-9.029l-7.525-31.703c-.427-1.799-.128-3.658.843-5.233.97-1.575 2.496-2.678 4.296-3.105l27.421-6.509c3.005-.713 5.266-3.196 5.695-6.255s-1.06-6.067-3.753-7.581c-4.804-2.7-8.149-7.135-9.419-12.487-1.202-5.064-.36-10.293 2.371-14.725 2.731-4.431 7.024-7.533 12.089-8.735 5.063-1.205 10.292-.36 14.725 2.371 4.431 2.731 7.533 7.024 8.735 12.089 1.271 5.353.275 10.817-2.804 15.389-1.725 2.562-1.703 5.919.055 8.458s4.894 3.74 7.898 3.028l27.421-6.509c3.713-.883 7.457 1.423 8.339 5.139l3.161 13.319c-3.601-.299-7.244-.027-10.815.821-9.253 2.196-17.266 8.195-21.984 16.457-4.786 8.381-5.843 18.096-2.978 27.354 4.98 16.092 21.288 26.349 37.945 23.868 4.687-.699 9.067-2.289 12.979-4.684l3.159 13.308c.882 3.716-1.424 7.457-5.14 8.338l-90.433 21.465c-1.799.428-3.658.128-5.233-.842-1.575-.971-2.678-2.497-3.105-4.297l-6.257-26.364c-.956-4.03-4.998-6.524-9.029-5.565-4.03.957-6.522 4.999-5.565 9.029l6.257 26.364c1.353 5.698 4.844 10.529 9.829 13.602 3.503 2.159 7.449 3.269 11.463 3.269 1.699 0 3.41-.199 5.104-.601l14.945-3.547-6.919 31.009c-1.28-.52-2.601-.947-3.966-1.259-5.584-1.264-11.171-.562-16.035 1.641l-.016-.581c-.344-12.275-9.405-22.528-21.544-24.379-5.788-.884-11.51.281-16.344 3.021-3.921-7.02-11.073-11.983-19.51-12.868-7.098-.746-14.227 1.553-19.552 6.308-1.26 1.125-2.391 2.369-3.39 3.702l-3.926-10.181c-4.418-11.458-16.377-18.106-28.442-15.798-7.012 1.339-13.169 5.601-16.893 11.692s-4.709 13.514-2.705 20.365l35.2 120.311c2.378 8.127 7.005 15.368 13.38 20.939l89.917 78.59 10.16 76.103c.503 3.769 3.724 6.508 7.425 6.508.331 0 .665-.022 1.002-.067 4.105-.548 6.99-4.321 6.441-8.427l-10.534-78.9c-.241-1.803-1.129-3.457-2.499-4.654l-92.042-80.448c-4.219-3.687-7.281-8.479-8.854-13.857l-35.2-120.311c-.832-2.843-.439-5.801 1.106-8.329s3.999-4.226 6.909-4.782c4.937-.942 9.825 1.776 11.633 6.461l22.057 57.199c-5.39 5.807-8.349 13.315-8.349 21.282 0 8.367 3.258 16.233 9.175 22.149l43.779 43.779c7.042 7.042 13.25 14.918 18.45 23.409 2.164 3.532 6.78 4.643 10.313 2.478 3.532-2.164 4.642-6.781 2.478-10.313-5.816-9.496-12.759-18.304-20.635-26.181l-43.778-43.779c-3.083-3.083-4.781-7.182-4.781-11.542s1.698-8.459 4.781-11.542 7.182-4.781 11.542-4.781 8.459 1.698 11.542 4.781l36.337 36.337c7.741 7.741 16.634 14.142 26.433 19.026l40.927 20.398c5.737 2.859 10.401 7.34 13.486 12.959l14.116 25.707c4.098 7.462 4.977 16.398 2.413 24.517-3.829 12.118-4.948 25.194-3.236 37.815.51 3.763 3.728 6.493 7.423 6.493.335 0 .675-.022 1.017-.069 4.104-.557 6.981-4.335 6.424-8.44-1.416-10.443-.491-21.26 2.675-31.281 3.792-12.005 2.492-25.22-3.568-36.255l-14.116-25.707c-4.563-8.31-11.46-14.938-19.944-19.165l-35.373-17.63.699-16.293 15.612 3.483c3.474.774 7.077-.414 9.403-3.104 2.333-2.696 2.992-6.445 1.721-9.782-1.57-4.122-1.691-8.556-.351-12.823 2.846-9.058 12.083-14.801 21.47-13.358 5.429.834 10.113 3.772 13.19 8.275 3.078 4.505 4.119 9.916 2.932 15.238-.833 3.732-2.717 7.101-5.451 9.741-2.576 2.489-3.575 6.171-2.608 9.61.962 3.419 3.716 6.024 7.188 6.799l21.614 4.822c1.602.357 3.201.529 4.778.529 10.041 0 19.122-6.955 21.398-17.153zm-208.276-48.798-7.162-18.574.09-10.331c.026-2.963 1.257-5.681 3.467-7.654s5.051-2.888 7.997-2.58c4.995.524 8.893 4.541 9.268 9.549l2.129 28.432c-1.85-.336-3.742-.516-5.662-.516-3.501.001-6.909.578-10.127 1.674zm31.416 6.684-2.332-31.142c2.14-3.569 6.256-5.562 10.465-4.923 4.965.757 8.671 4.951 8.812 9.971l1.239 44.237-17.326-17.326c-.28-.28-.569-.548-.858-.817zm33.623 33.582-1.108-39.569c1.608-5.06 6.889-8.15 12.151-6.96 1.212.277 2.353.755 3.349 1.394.194.126.378.263.561.399l-5.238 23.477c-1.275 5.716-.249 11.587 2.892 16.53 1.351 2.126 3.038 3.951 4.96 5.465l-.591 13.783c-4.813-3.183-9.298-6.843-13.401-10.947zm128.597 5.265c-.832 3.728-4.538 6.084-8.268 5.252l-13.361-2.981c1.842-3.106 3.192-6.502 3.991-10.086 2.071-9.282.181-19.111-5.187-26.967-5.445-7.969-13.719-13.167-23.297-14.639-16.653-2.557-33.011 7.626-38.058 23.688-1.42 4.521-1.906 9.155-1.463 13.721l-13.349-2.978c-3.728-.832-6.083-4.541-5.252-8.268l17.128-76.765 47.219-11.208 54.885 12.246c3.728.832 6.083 4.541 5.252 8.268l-6.137 27.507c-.673 3.015.571 6.133 3.134 7.856 2.563 1.725 5.921 1.701 8.458-.06 4.529-3.14 9.979-4.208 15.349-3.011 5.081 1.134 9.415 4.178 12.206 8.571s3.704 9.611 2.57 14.691-4.178 9.415-8.571 12.206c-4.394 2.792-9.611 3.704-14.692 2.57-5.369-1.198-9.849-4.483-12.613-9.25-1.549-2.671-4.577-4.113-7.631-3.65-3.053.471-5.504 2.765-6.177 5.779z"></path></g></svg>