<svg xmlns="http://www.w3.org/2000/svg" id="Layer_1_1_" height="512" viewBox="0 0 64 64" width="512"><path d="m48.052 10.738c-.119.355-.029.748.232 1.016l1.647 1.688-.391 2.396c-.062.378.098.758.411.979s.726.242 1.06.058l1.989-1.099 1.988 1.099c.152.083.318.125.484.125.202 0 .404-.062.576-.183.313-.22.473-.601.411-.979l-.391-2.396 1.647-1.688c.262-.268.352-.66.232-1.016s-.427-.615-.797-.671l-2.236-.342-1.009-2.15c-.164-.351-.517-.575-.905-.575s-.741.224-.905.575l-1.009 2.15-2.236.342c-.371.057-.679.316-.798.671zm3.863.884c.33-.051.613-.262.754-.564l.331-.704.331.705c.142.302.424.513.754.564l.84.128-.641.657c-.222.227-.322.546-.271.859l.141.862-.67-.37c-.15-.083-.317-.125-.484-.125s-.333.042-.484.125l-.67.37.141-.862c.051-.313-.049-.632-.271-.859l-.641-.657z"></path><path d="m26 26c-6.617 0-12 5.383-12 12s5.383 12 12 12 12-5.383 12-12-5.383-12-12-12zm-5.703 20.203c.47-1.49 1.485-2.717 2.811-3.45.336 1.289 1.5 2.247 2.892 2.247 1.396 0 2.562-.962 2.895-2.255.488.27.943.607 1.348 1.012.687.687 1.179 1.524 1.468 2.441-1.621 1.132-3.588 1.802-5.711 1.802-2.12 0-4.084-.667-5.703-1.797zm1.73-9.935c1.178-.817 2.536-1.268 3.973-1.268s2.795.451 3.973 1.268c-.141 2.079-1.859 3.732-3.973 3.732s-3.832-1.653-3.973-3.732zm.812-2.691c.732-.952 1.87-1.577 3.161-1.577s2.429.625 3.161 1.577c-1.001-.377-2.064-.577-3.161-.577s-2.16.2-3.161.577zm3.161 8.423c.333 0 .66.033.983.086-.046.509-.462.914-.983.914s-.936-.405-.982-.913c.321-.054.648-.087.982-.087zm7.311 2.8c-.397-.908-.943-1.746-1.654-2.457-.627-.627-1.343-1.129-2.115-1.511 1.487-1.094 2.458-2.849 2.458-4.832 0-3.309-2.691-6-6-6s-6 2.691-6 6c0 1.985.973 3.743 2.463 4.836-1.668.827-3.021 2.221-3.784 3.954-1.657-1.786-2.679-4.168-2.679-6.79 0-5.514 4.486-10 10-10s10 4.486 10 10c0 2.627-1.026 5.014-2.689 6.8z"></path><path d="m43.854 41.241.25-.063c.402-.102.699-.44.748-.852.099-.854.148-1.615.148-2.326s-.049-1.472-.149-2.326c-.048-.412-.346-.75-.748-.852l-.249-.063c-1.311-.331-2.66-.672-3.492-1.044-.089-.302-.183-.591-.284-.87.463-.837 1.399-1.975 2.308-3.079l.083-.101c.26-.316.302-.759.104-1.118-.718-1.305-1.607-2.543-2.642-3.683-.284-.312-.73-.412-1.122-.252l-.131.054c-1.328.548-2.812 1.161-3.722 1.313-.161-.12-.324-.236-.488-.35-.145-.922-.03-2.566.073-4.037l.012-.17c.029-.411-.197-.797-.57-.974-1.391-.658-2.819-1.139-4.246-1.43-.409-.083-.851.129-1.07.488-.792 1.294-1.756 2.873-2.441 3.499-.149-.008-.302-.008-.451 0-.684-.626-1.649-2.206-2.458-3.528-.22-.359-.639-.545-1.052-.458-1.426.29-2.854.771-4.246 1.43-.373.176-.599.562-.57.974l.012.171c.103 1.47.218 3.113.073 4.036-.165.113-.328.23-.489.35-.911-.152-2.398-.767-3.729-1.317l-.123-.051c-.39-.159-.838-.06-1.122.252-1.036 1.14-1.925 2.379-2.643 3.683-.198.359-.156.802.104 1.118l.08.097c.91 1.105 1.848 2.245 2.311 3.083-.101.278-.195.567-.284.87-.833.373-2.186.715-3.499 1.047l-.242.061c-.402.102-.699.44-.748.852-.101.853-.15 1.614-.15 2.325s.049 1.472.149 2.326c.048.412.346.75.748.853l.234.059c1.316.332 2.671.674 3.506 1.048.089.302.183.591.284.87-.463.837-1.399 1.975-2.308 3.079l-.083.101c-.26.316-.302.759-.104 1.118.718 1.305 1.607 2.543 2.642 3.683.284.312.733.414 1.122.252l.128-.053c1.329-.549 2.813-1.162 3.724-1.314.16.12.323.237.488.35.145.923.03 2.566-.073 4.036l-.012.171c-.029.411.197.797.57.974 1.391.658 2.819 1.139 4.246 1.43.412.083.852-.129 1.07-.488.792-1.294 1.756-2.873 2.441-3.499.149.008.302.008.451 0 .685.627 1.651 2.208 2.459 3.528.187.299.512.476.856.476.066 0 .133-.006.199-.02 1.426-.29 2.854-.771 4.246-1.43.373-.176.599-.562.57-.974l-.012-.165c-.103-1.472-.218-3.118-.073-4.042.165-.113.328-.23.489-.35.91.152 2.395.765 3.724 1.314l.128.053c.392.163.839.061 1.122-.252 1.036-1.14 1.925-2.378 2.643-3.682.197-.359.156-.802-.104-1.118l-.086-.104c-.908-1.103-1.843-2.239-2.305-3.076.101-.279.195-.567.284-.87.831-.371 2.18-.712 3.491-1.043zm-5.785 2.355c.427 1.004 1.371 2.201 2.416 3.475-.46.761-.988 1.496-1.576 2.194-1.62-.665-3.126-1.246-4.217-1.279-.232-.014-.465.069-.65.214-.323.255-.658.495-1.004.719-.199.129-.346.324-.415.552-.32 1.062-.237 2.737-.114 4.55-.825.353-1.659.636-2.493.845-1.012-1.645-1.979-3.125-2.941-3.737-.161-.102-.347-.156-.537-.156-.013 0-.025 0-.038 0l-.246.015c-.169.012-.339.012-.508 0l-.246-.015c-.202-.007-.403.047-.575.156-.958.61-1.921 2.08-2.941 3.737-.834-.21-1.669-.493-2.494-.845.124-1.813.207-3.488-.114-4.55-.068-.227-.215-.422-.415-.551-.346-.224-.681-.463-1.003-.718-.185-.147-.422-.229-.651-.215-1.091.033-2.597.614-4.217 1.279-.587-.698-1.115-1.433-1.575-2.195 1.044-1.274 1.989-2.471 2.416-3.475.104-.244.106-.518.008-.764-.185-.459-.344-.948-.489-1.495-.068-.257-.236-.476-.466-.609-.919-.532-2.36-.922-3.918-1.318-.045-.504-.066-.97-.066-1.41s.021-.906.065-1.411c1.559-.396 3-.786 3.918-1.318.23-.133.397-.352.466-.609.145-.548.305-1.037.489-1.495.099-.245.096-.52-.007-.764-.426-1.004-1.371-2.201-2.416-3.475.46-.762.988-1.496 1.575-2.195 1.621.666 3.126 1.247 4.218 1.279.229.006.465-.069.65-.214.323-.255.658-.495 1.004-.719.199-.129.346-.324.415-.551.32-1.062.238-2.737.114-4.55.825-.353 1.659-.636 2.494-.845 1.012 1.645 1.978 3.125 2.941 3.737.172.109.371.164.575.156l.245-.015c.168-.012.34-.012.508 0l.245.015c.202.009.403-.047.575-.156.959-.61 1.921-2.08 2.942-3.737.834.21 1.669.493 2.494.845-.124 1.813-.207 3.488.114 4.55.068.227.215.422.415.551.347.224.681.463 1.004.719.185.146.404.224.65.214 1.091-.033 2.597-.614 4.218-1.279.587.698 1.115 1.433 1.575 2.195-1.044 1.274-1.989 2.471-2.416 3.475-.104.244-.106.518-.008.764.185.459.344.948.489 1.495.068.257.236.476.466.609.919.532 2.36.922 3.918 1.317.044.506.065.972.065 1.412s-.021.906-.065 1.411c-1.559.396-3 .785-3.919 1.318-.23.133-.397.352-.465.609-.145.548-.305 1.037-.489 1.495-.099.244-.097.519.007.763z"></path><path d="m46.744 4.198 1.252 1.56c.467-.375.976-.697 1.513-.958l-.874-1.8c-.672.327-1.308.729-1.891 1.198z"></path><path d="m53.01 20v2c.749 0 1.497-.084 2.224-.25l-.445-1.95c-.582.133-1.18.2-1.779.2z"></path><path d="m45.202 13.796-1.949.446c.167.729.417 1.44.744 2.114l1.8-.873c-.262-.537-.462-1.105-.595-1.687z"></path><path d="m46.775 19.827 1.246-1.564c-.468-.373-.895-.798-1.269-1.265l-1.561 1.25c.468.583 1 1.114 1.584 1.579z"></path><path d="m59.24 19.815-1.249-1.562c-.468.375-.978.696-1.514.955l.87 1.801c.671-.324 1.307-.726 1.893-1.194z"></path><path d="m48.671 21.016c.674.325 1.386.573 2.116.738l.441-1.951c-.583-.131-1.151-.33-1.69-.589z"></path><path d="m60.196 8.501c.261.537.462 1.104.598 1.687l1.948-.453c-.169-.729-.421-1.438-.748-2.11z"></path><path d="m62.013 16.337-1.802-.868c-.259.538-.58 1.048-.954 1.516l1.563 1.247c.468-.585.868-1.222 1.193-1.895z"></path><path d="m59.208 4.16-1.242 1.567c.469.372.896.796 1.271 1.262l1.559-1.254c-.469-.581-1.003-1.111-1.588-1.575z"></path><path d="m46.732 7.028-1.565-1.244c-.467.586-.866 1.225-1.189 1.898l1.804.864c.258-.538.577-1.049.95-1.518z"></path><path d="m63 11.971-.331-.003-1.669.032c0 .601-.067 1.2-.198 1.78l1.95.442c.165-.724.248-1.472.248-2.251z"></path><path d="m52.975 4-.006-2c-.75.002-1.498.088-2.223.255l.449 1.949c.58-.133 1.178-.202 1.78-.204z"></path><path d="m43 12v.019l2-.019c0-.596.065-1.189.195-1.764l-1.951-.438c-.162.718-.244 1.459-.244 2.202z"></path><path d="m57.31 2.975c-.675-.323-1.388-.57-2.118-.733l-.437 1.952c.583.13 1.152.327 1.691.585z"></path><path d="m26 62c13.233 0 24-10.767 24-24h-2c0 12.131-9.869 22-22 22s-22-9.869-22-22 9.869-22 22-22h11.15l-2.774 2.219 1.249 1.562 5-4-.004-.005c.143-.114.26-.263.324-.444.14-.401.013-.847-.319-1.112l-5-4-1.249 1.562 2.772 2.218h-11.149c-13.233 0-24 10.767-24 24s10.767 24 24 24z"></path><path d="m48 34h2v2h-2z"></path></svg>